<svg id="Capa_1" enable-background="new 0 0 512 512" height="512" viewBox="0 0 512 512" width="512" xmlns="http://www.w3.org/2000/svg"><g><path d="m271.003 506.019 188.863-179.028c3.723-3.53 6.083-8.259 6.665-13.356l33.007-289.354c1.477-12.94-8.644-24.281-21.668-24.281h-443.741c-13.023 0-23.144 11.341-21.668 24.281l33.007 289.354c.581 5.097 2.941 9.827 6.665 13.356l188.863 179.028c8.413 7.975 21.594 7.975 30.007 0z" fill="#b3dafe"/><path d="m477.87 0h-20.044c13.024 0 23.144 11.341 21.668 24.281l-33.007 289.354c-.582 5.097-2.941 9.826-6.665 13.356l-188.863 179.028c-1.522 1.443-3.204 2.616-4.981 3.536 8.048 4.169 18.135 2.995 25.026-3.536l188.863-179.028c3.723-3.529 6.083-8.259 6.665-13.356l33.007-289.354c1.475-12.94-8.645-24.281-21.669-24.281z" fill="#8ac9fe"/><path d="m87.333 300.141-27.992-245.391c-.566-4.966 3.317-9.318 8.315-9.318h376.687c4.998 0 8.882 4.352 8.315 9.318l-27.991 245.39c-.223 1.956-1.129 3.771-2.558 5.125l-160.351 152.002c-3.228 3.06-8.287 3.06-11.515 0l-160.352-152.001c-1.429-1.354-2.335-3.169-2.558-5.125z" fill="#f5f8f9"/><path d="m444.344 45.433h-25.506c4.998 0 8.882 4.352 8.315 9.318l-27.991 245.391c-.223 1.956-1.129 3.771-2.558 5.125l-153.356 145.37 6.995 6.631c3.228 3.06 8.287 3.06 11.515 0l160.352-152.002c1.429-1.354 2.335-3.169 2.558-5.125l27.991-245.391c.566-4.966-3.318-9.317-8.315-9.317z" fill="#e8edf2"/><g><path d="m306.683 84.189h-101.366c-4.267 0-7.726-3.459-7.726-7.726 0-4.268 3.459-7.726 7.726-7.726h101.366c4.268 0 7.726 3.459 7.726 7.726s-3.459 7.726-7.726 7.726z" fill="#7a8c98"/></g><g><path d="m256 419.067c-4.267 0-7.726-3.459-7.726-7.726v-9.015c0-4.268 3.459-7.726 7.726-7.726 4.268 0 7.726 3.459 7.726 7.726v9.015c0 4.267-3.459 7.726-7.726 7.726z" fill="#b3dafe"/></g><path d="m486.737 222.392h-461.475c-3.806 0-7.259 2.219-8.834 5.684-4.105 9.029-11.999 26.188-15.162 31.687-.838 1.457-1.266 3.111-1.266 4.792v68.656c0 1.469.334 2.92.976 4.241l15.369 31.639c1.624 3.343 5.014 5.466 8.731 5.466h461.849c3.717 0 7.107-2.122 8.731-5.466l15.369-31.639c.642-1.322.976-2.772.976-4.241v-68.654c0-1.682-.428-3.337-1.267-4.794-3.165-5.498-11.057-22.658-15.161-31.687-1.577-3.464-5.03-5.684-8.836-5.684z" fill="#d5e3f4"/><path d="m486.737 222.392h-20.276s12.633 28.155 17.348 36.69c1.085 1.964 1.651 4.166 1.651 6.41v66.9c0 2.009-.456 3.992-1.334 5.799l-17.665 36.366h20.463c3.717 0 7.107-2.122 8.731-5.465l15.369-31.638c.642-1.322.976-2.772.976-4.241v-68.654c0-1.682-.428-3.337-1.267-4.794-3.165-5.498-11.057-22.658-15.161-31.687-1.576-3.466-5.029-5.686-8.835-5.686z" fill="#b3ceec"/><g><g><path d="m94.991 306.201h-14.578c-4.267 0-7.726-3.459-7.726-7.726s3.459-7.726 7.726-7.726h14.577c4.267 0 7.726 3.459 7.726 7.726s-3.458 7.726-7.725 7.726z" fill="#b3dafe"/></g><g><path d="m431.587 306.201h-14.577c-4.268 0-7.726-3.459-7.726-7.726s3.459-7.726 7.726-7.726h14.577c4.268 0 7.726 3.459 7.726 7.726s-3.458 7.726-7.726 7.726z" fill="#b3dafe"/></g></g><g><g><g><path d="m349.564 343.855c-8.345 0-8.838-.086-9.382-.178-3.709-.637-6.421-3.852-6.421-7.616v-75.236c0-4.268 3.459-7.726 7.726-7.726 4.268 0 7.726 3.459 7.726 7.726v67.573c5.086-.002 12.092-.027 18.599-.063h.044c4.247 0 7.701 3.431 7.725 7.683.024 4.268-3.417 7.745-7.683 7.77-8.505.047-14.326.067-18.334.067z" fill="#7a8c98"/></g></g><g><g><path d="m170.384 343.851c-12.242 0-24.192-5.122-31.965-13.7-2.865-3.162-2.625-8.048.537-10.913 3.161-2.865 8.048-2.625 10.913.537 4.893 5.4 12.562 8.624 20.515 8.624 8.16 0 13.94-5.059 14.814-9.952.861-4.824-3.129-9.245-10.949-12.13-11.626-4.289-21.946-8.881-22.38-9.074-.372-.166-.731-.361-1.072-.585-7.384-4.814-11.188-13.26-9.927-22.04 1.35-9.4 8.251-17.067 18.01-20.008 19.71-5.936 35.963 7.469 36.646 8.042 3.266 2.745 3.688 7.62.943 10.886-2.737 3.256-7.586 3.685-10.853.97-.212-.172-10.733-8.579-22.278-5.102-5.762 1.735-6.935 5.759-7.172 7.407-.377 2.628.607 5.058 2.647 6.602 2.42 1.062 11.264 4.892 20.785 8.404 18.022 6.647 22.567 19.516 20.813 29.343-2.31 12.935-15.218 22.689-30.027 22.689z" fill="#7a8c98"/></g></g><g><g><path d="m299.822 343.547c-1.977 0-3.955-.755-5.464-2.263l-24.09-24.09c-3.017-3.018-3.017-7.909 0-10.928 3.018-3.016 7.909-3.016 10.928 0l24.09 24.09c3.017 3.018 3.017 7.909 0 10.928-1.51 1.508-3.488 2.263-5.464 2.263z" fill="#7a8c98"/></g><g><path d="m261.881 343.851c-25.02 0-45.376-20.356-45.376-45.376s20.356-45.376 45.376-45.376 45.376 20.356 45.376 45.376-20.356 45.376-45.376 45.376zm0-75.3c-16.499 0-29.923 13.424-29.923 29.924s13.424 29.924 29.923 29.924c16.5 0 29.924-13.424 29.924-29.924s-13.424-29.924-29.924-29.924z" fill="#7a8c98"/></g></g></g><g><path d="m286.14 137.328h-60.28c-3.435 0-6.219-2.785-6.219-6.219v-15.461c0-3.435 2.785-6.219 6.219-6.219h60.279c3.435 0 6.219 2.785 6.219 6.219v15.461c.001 3.435-2.784 6.219-6.218 6.219z" fill="#b3dafe"/></g><g><path d="m286.14 165.228h-60.28c-3.435 0-6.219-2.785-6.219-6.219v-15.461c0-3.435 2.785-6.219 6.219-6.219h60.279c3.435 0 6.219 2.785 6.219 6.219v15.461c.001 3.435-2.784 6.219-6.218 6.219z" fill="#8ac9fe"/></g><g><path d="m286.14 193.128h-60.28c-3.435 0-6.219-2.785-6.219-6.219v-15.461c0-3.435 2.785-6.219 6.219-6.219h60.279c3.435 0 6.219 2.785 6.219 6.219v15.461c.001 3.435-2.784 6.219-6.218 6.219z" fill="#b3dafe"/></g></g></svg>